<svg id="ico" xmlns="http://www.w3.org/2000/svg" width="200" height="20" xmlns:v="https://vecta.io/nano"><path d="M2.472 19v-8.268h8.58V8.704h-8.58V2.62h9.23V.592H.288V19h2.184zm27.81 0v-2.028h-9.854V10.42h8.762V8.392h-8.762V2.62h9.386V.592h-11.57V19h12.038zM49.2 19v-2.028h-9.854V10.42h8.762V8.392h-8.762V2.62h9.386V.592h-11.57V19H49.2zm17.488 0v-2.028h-8.424V.592H56.08V19h10.608zm57.314 0v-3.744h-8.918v-3.744h7.982V7.768h-7.982V4.336h8.45V.592h-12.506V19h12.974zm11.06.468c.953 0 1.859-.121 2.717-.364s1.612-.615 2.262-1.118a5.43 5.43 0 0 0 1.547-1.898c.381-.763.572-1.655.572-2.678 0-1.075-.208-1.933-.624-2.574a4.83 4.83 0 0 0-1.573-1.534 8.41 8.41 0 0 0-2.041-.884l-2.041-.624c-.633-.208-1.157-.459-1.573-.754s-.624-.719-.624-1.274c0-.347.087-.641.26-.884a1.92 1.92 0 0 1 .676-.585 3.49 3.49 0 0 1 .884-.325 4.19 4.19 0 0 1 .91-.104c.503 0 1.036.1 1.599.299s1.01.507 1.339.923h0l2.782-3.042c-.78-.693-1.655-1.187-2.626-1.482s-1.976-.442-3.016-.442c-.901 0-1.777.126-2.626.377s-1.599.628-2.249 1.131a5.64 5.64 0 0 0-1.56 1.872c-.39.745-.585 1.612-.585 2.6 0 1.023.212 1.846.637 2.47s.958 1.127 1.599 1.508a9.34 9.34 0 0 0 2.08.91l2.08.676c.641.225 1.174.498 1.599.819s.637.758.637 1.313a1.49 1.49 0 0 1-.247.858 1.96 1.96 0 0 1-.65.598 3.26 3.26 0 0 1-.91.351 4.44 4.44 0 0 1-1.001.117 4.49 4.49 0 0 1-1.963-.455c-.633-.303-1.157-.732-1.573-1.287h0l-2.886 3.172c.884.815 1.837 1.404 2.86 1.768s2.132.546 3.328.546zM152.18 19V.592h-4.056V19h4.056zm15.636.468c1.352 0 2.678-.139 3.978-.416a14.67 14.67 0 0 0 3.744-1.352h0V8.08h-7.202v3.744h3.302v2.99c-.381.208-.893.412-1.534.611s-1.404.299-2.288.299c-.867 0-1.651-.147-2.353-.442a5.28 5.28 0 0 1-1.807-1.235 5.45 5.45 0 0 1-1.157-1.872c-.269-.719-.403-1.512-.403-2.379 0-.849.134-1.638.403-2.366s.654-1.356 1.157-1.885a5.28 5.28 0 0 1 1.807-1.235c.702-.295 1.486-.442 2.353-.442 1.04 0 1.907.147 2.6.442a5.71 5.71 0 0 1 1.872 1.3h0l2.86-3.12a7.96 7.96 0 0 0-3.263-1.833c-1.239-.355-2.596-.533-4.069-.533-1.439 0-2.765.225-3.978.676s-2.262 1.096-3.146 1.937-1.573 1.859-2.067 3.055-.741 2.531-.741 4.004.247 2.808.741 4.004 1.183 2.214 2.067 3.055 1.933 1.486 3.146 1.937 2.539.676 3.978.676zm18.34-.468V5.896h.052L194.242 19h5.304V.592h-4.056v12.792h-.052L187.612.592H182.1V19h4.056zm-80.933-7.207a13.94 13.94 0 0 0-.65-4.266c-.433-1.356-1.069-2.552-1.907-3.588s-1.874-1.86-3.107-2.472S96.899.55 95.28.55c-1.827 0-3.38.315-4.661.946s-2.321 1.483-3.121 2.556-1.379 2.331-1.737 3.771-.537 2.961-.537 4.562h0v6.61h20v-7.203zm-4.068.508v2.288H89.291V11.99c0-.923.118-1.803.353-2.641s.589-1.568 1.059-2.189a5.11 5.11 0 0 1 1.794-1.483c.725-.367 1.577-.551 2.556-.551 1.13 0 2.086.184 2.867.551s1.412.871 1.893 1.511.824 1.398 1.031 2.274.311 1.822.311 2.839h0z"/></svg>