<svg id="ico" width="200px" height="20px" viewBox="0 0 200 20" version="1.1" xmlns="http://www.w3.org/2000/svg">
    <path d="M2.472,19 L2.472,10.732 L11.052,10.732 L11.052,8.704 L2.472,8.704 L2.472,2.62 L11.702,2.62 L11.702,0.592 L0.288,0.592 L0.288,19 L2.472,19 Z M30.282,19 L30.282,16.972 L20.428,16.972 L20.428,10.42 L29.19,10.42 L29.19,8.392 L20.428,8.392 L20.428,2.62 L29.814,2.62 L29.814,0.592 L18.244,0.592 L18.244,19 L30.282,19 Z M49.2,19 L49.2,16.972 L39.346,16.972 L39.346,10.42 L48.108,10.42 L48.108,8.392 L39.346,8.392 L39.346,2.62 L48.732,2.62 L48.732,0.592 L37.162,0.592 L37.162,19 L49.2,19 Z M66.688,19 L66.688,16.972 L58.264,16.972 L58.264,0.592 L56.08,0.592 L56.08,19 L66.688,19 Z"></path>
    <g id="Group" transform="translate(85.000000, 0.000000)">
        <path d="M39.002,19 L39.002,15.256 L30.084,15.256 L30.084,11.512 L38.066,11.512 L38.066,7.768 L30.084,7.768 L30.084,4.336 L38.534,4.336 L38.534,0.592 L26.028,0.592 L26.028,19 L39.002,19 Z M50.062,19.468 C51.0153333,19.468 51.921,19.3466667 52.779,19.104 C53.637,18.8613333 54.391,18.4886667 55.041,17.986 C55.691,17.4833333 56.2066667,16.8506667 56.588,16.088 C56.9693333,15.3253333 57.16,14.4326667 57.16,13.41 C57.16,12.3353333 56.952,11.4773333 56.536,10.836 C56.12,10.1946667 55.5956667,9.68333333 54.963,9.302 C54.3303333,8.92066667 53.65,8.626 52.922,8.418 C52.194,8.21 51.5136667,8.002 50.881,7.794 C50.2483333,7.586 49.724,7.33466667 49.308,7.04 C48.892,6.74533333 48.684,6.32066667 48.684,5.766 C48.684,5.41933333 48.7706667,5.12466667 48.944,4.882 C49.1173333,4.63933333 49.3426667,4.44433333 49.62,4.297 C49.8973333,4.14966667 50.192,4.04133333 50.504,3.972 C50.816,3.90266667 51.1193333,3.868 51.414,3.868 C51.9166667,3.868 52.4496667,3.96766667 53.013,4.167 C53.5763333,4.36633333 54.0226667,4.674 54.352,5.09 L54.352,5.09 L57.134,2.048 C56.354,1.35466667 55.4786667,0.860666667 54.508,0.566 C53.5373333,0.271333333 52.532,0.124 51.492,0.124 C50.5906667,0.124 49.7153333,0.249666667 48.866,0.501 C48.0166667,0.752333333 47.267,1.12933333 46.617,1.632 C45.967,2.13466667 45.447,2.75866667 45.057,3.504 C44.667,4.24933333 44.472,5.116 44.472,6.104 C44.472,7.12666667 44.6843333,7.95 45.109,8.574 C45.5336667,9.198 46.0666667,9.70066667 46.708,10.082 C47.3493333,10.4633333 48.0426667,10.7666667 48.788,10.992 C49.5333333,11.2173333 50.2266667,11.4426667 50.868,11.668 C51.5093333,11.8933333 52.0423333,12.1663333 52.467,12.487 C52.8916667,12.8076667 53.104,13.2453333 53.104,13.8 C53.104,14.1293333 53.0216667,14.4153333 52.857,14.658 C52.6923333,14.9006667 52.4756667,15.1 52.207,15.256 C51.9383333,15.412 51.635,15.529 51.297,15.607 C50.959,15.685 50.6253333,15.724 50.296,15.724 C49.62,15.724 48.9656667,15.5723333 48.333,15.269 C47.7003333,14.9656667 47.176,14.5366667 46.76,13.982 L46.76,13.982 L43.874,17.154 C44.758,17.9686667 45.7113333,18.558 46.734,18.922 C47.7566667,19.286 48.866,19.468 50.062,19.468 Z M67.18,19 L67.18,0.592 L63.124,0.592 L63.124,19 L67.18,19 Z M82.816,19.468 C84.168,19.468 85.494,19.3293333 86.794,19.052 C88.094,18.7746667 89.342,18.324 90.538,17.7 L90.538,17.7 L90.538,8.08 L83.336,8.08 L83.336,11.824 L86.638,11.824 L86.638,14.814 C86.2566667,15.022 85.7453333,15.2256667 85.104,15.425 C84.4626667,15.6243333 83.7,15.724 82.816,15.724 C81.9493333,15.724 81.165,15.5766667 80.463,15.282 C79.761,14.9873333 79.1586667,14.5756667 78.656,14.047 C78.1533333,13.5183333 77.7676667,12.8943333 77.499,12.175 C77.2303333,11.4556667 77.096,10.6626667 77.096,9.796 C77.096,8.94666667 77.2303333,8.158 77.499,7.43 C77.7676667,6.702 78.1533333,6.07366667 78.656,5.545 C79.1586667,5.01633333 79.761,4.60466667 80.463,4.31 C81.165,4.01533333 81.9493333,3.868 82.816,3.868 C83.856,3.868 84.7226667,4.01533333 85.416,4.31 C86.1093333,4.60466667 86.7333333,5.038 87.288,5.61 L87.288,5.61 L90.148,2.49 C89.212,1.62333333 88.1243333,1.01233333 86.885,0.657 C85.6456667,0.301666667 84.2893333,0.124 82.816,0.124 C81.3773333,0.124 80.0513333,0.349333333 78.838,0.8 C77.6246667,1.25066667 76.576,1.89633333 75.692,2.737 C74.808,3.57766667 74.119,4.596 73.625,5.792 C73.131,6.988 72.884,8.32266667 72.884,9.796 C72.884,11.2693333 73.131,12.604 73.625,13.8 C74.119,14.996 74.808,16.0143333 75.692,16.855 C76.576,17.6956667 77.6246667,18.3413333 78.838,18.792 C80.0513333,19.2426667 81.3773333,19.468 82.816,19.468 Z M101.156,19 L101.156,5.896 L101.208,5.896 L109.242,19 L114.546,19 L114.546,0.592 L110.49,0.592 L110.49,13.384 L110.438,13.384 L102.612,0.592 L97.1,0.592 L97.1,19 L101.156,19 Z"></path>
        <path d="M8.20338983,19.7731638 C9.69114878,19.7731638 11.1129944,19.5565913 12.4689266,19.1234463 C13.8248588,18.6903013 15.0207156,18.0547081 16.0564972,17.2166667 C17.0922787,16.3786252 17.9161959,15.3428437 18.5282486,14.109322 C19.1403013,12.8758004 19.4463277,11.4492467 19.4463277,9.82966102 C19.4463277,8.00291902 19.1308851,6.4492467 18.5,5.16864407 C17.8691149,3.88804143 17.0169492,2.84755179 15.9435028,2.04717514 C14.8700565,1.24679849 13.6129944,0.667702448 12.1723164,0.309887006 C10.7316384,-0.0479284369 9.21092279,-0.226836158 7.61016949,-0.226836158 L7.61016949,-0.226836158 L1,-0.226836158 L1,19.7731638 L8.20338983,19.7731638 Z M7.69491525,15.7053672 L5.40677966,15.7053672 L5.40677966,3.84096045 L8.00564972,3.84096045 C8.92843691,3.84096045 9.80885122,3.9586629 10.6468927,4.1940678 C11.4849341,4.42947269 12.2146893,4.78258004 12.8361582,5.25338983 C13.4576271,5.72419962 13.9519774,6.32212806 14.319209,7.04717514 C14.6864407,7.77222222 14.8700565,8.62438795 14.8700565,9.60367232 C14.8700565,10.7336158 14.6864407,11.6893597 14.319209,12.470904 C13.9519774,13.2524482 13.4482109,13.8833333 12.8079096,14.3635593 C12.1676083,14.8437853 11.4096045,15.1874765 10.5338983,15.3946328 C9.65819209,15.6017891 8.71186441,15.7053672 7.69491525,15.7053672 L7.69491525,15.7053672 Z" transform="translate(10.223164, 9.773164) rotate(-90.000000) translate(-10.223164, -9.773164) "></path>
    </g>
</svg>