<svg id="ico" xmlns="http://www.w3.org/2000/svg" viewBox="0 0 60 55" xmlns:v="https://vecta.io/nano"><path d="M60 33.729c0-4.463-.65-8.729-1.949-12.797s-3.206-7.655-5.72-10.763-5.621-5.579-9.322-7.415S35.028 0 30.169 0c-5.48 0-10.141.946-13.983 2.839s-6.963 4.449-9.364 7.669S2.684 17.5 1.61 21.822 0 30.706 0 35.508h0v19.831h60v-21.61zm-12.203 1.525v6.864H12.203v-7.797c0-2.768.353-5.41 1.059-7.924s1.766-4.703 3.178-6.568 3.206-3.347 5.381-4.449 4.732-1.653 7.669-1.653c3.39 0 6.257.551 8.602 1.653s4.237 2.613 5.678 4.534 2.472 4.195 3.093 6.822.932 5.466.932 8.517h0z"/></svg>