<svg id="ico" xmlns="http://www.w3.org/2000/svg" viewBox="0 0 19 27" xmlns:v="https://vecta.io/nano"><path d="M18.935 3.045L15.12 7.07c-.49-.63-1.155-1.143-1.995-1.54-.817-.397-1.622-.595-2.415-.595-.933 0-1.75.198-2.45.595-.677.373-1.015 1.003-1.015 1.89a2.18 2.18 0 0 0 .245 1.05c.163.28.432.537.805.77l1.155.56 1.61.525 2.135.735c.513.187 1.167.502 1.96.945.817.42 1.447.863 1.89 1.33s.84 1.097 1.19 1.89c.35.77.525 1.622.525 2.555 0 2.683-.922 4.737-2.765 6.16-1.82 1.4-4.06 2.1-6.72 2.1a14.45 14.45 0 0 1-5.18-.945C2.438 24.465 1.073 23.59 0 22.47l3.92-3.99c.607.77 1.4 1.4 2.38 1.89 1.003.49 1.995.735 2.975.735 1.003 0 1.82-.21 2.45-.63.653-.443.98-1.132.98-2.065 0-.373-.093-.7-.28-.98-.163-.303-.35-.548-.56-.735-.21-.21-.583-.432-1.12-.665l-1.365-.525-1.82-.63a18.05 18.05 0 0 1-2.345-.945c-.653-.327-1.307-.758-1.96-1.295S2.1 11.422 1.75 10.605s-.525-1.762-.525-2.835c0-1.307.28-2.473.84-3.5.56-1.05 1.307-1.867 2.24-2.45C5.238 1.213 6.253.758 7.35.455 8.47.152 9.625 0 10.815 0c1.447 0 2.893.268 4.34.805 1.47.513 2.73 1.26 3.78 2.24z"/></svg>