<svg viewBox="0 0 60 55" version="1.1" xmlns="http://www.w3.org/2000/svg">
    <path d="M23.940678,57.6694915 C28.4039548,57.6694915 32.6694915,57.019774 36.7372881,55.720339 C40.8050847,54.420904 44.3926554,52.5141243 47.5,50 C50.6073446,47.4858757 53.079096,44.3785311 54.9152542,40.6779661 C56.7514124,36.9774011 57.6694915,32.6977401 57.6694915,27.8389831 C57.6694915,22.3587571 56.7231638,17.6977401 54.8305085,13.8559322 C52.9378531,10.0141243 50.3813559,6.89265537 47.1610169,4.49152542 C43.940678,2.09039548 40.1694915,0.353107345 35.8474576,-0.720338983 C31.5254237,-1.79378531 26.9632768,-2.33050847 22.1610169,-2.33050847 L22.1610169,-2.33050847 L2.33050847,-2.33050847 L2.33050847,57.6694915 L23.940678,57.6694915 Z M22.4152542,45.4661017 L15.5508475,45.4661017 L15.5508475,9.87288136 L23.3474576,9.87288136 C26.1158192,9.87288136 28.7570621,10.2259887 31.2711864,10.9322034 C33.7853107,11.6384181 35.9745763,12.6977401 37.8389831,14.1101695 C39.7033898,15.5225989 41.1864407,17.3163842 42.2881356,19.4915254 C43.3898305,21.6666667 43.940678,24.2231638 43.940678,27.1610169 C43.940678,30.5508475 43.3898305,33.4180791 42.2881356,35.7627119 C41.1864407,38.1073446 39.6751412,40 37.7542373,41.440678 C35.8333333,42.8813559 33.559322,43.9124294 30.9322034,44.5338983 C28.3050847,45.1553672 25.4661017,45.4661017 22.4152542,45.4661017 L22.4152542,45.4661017 Z" id="D" fill="#000000" fill-rule="nonzero" transform="translate(30.000000, 27.669492) rotate(-90.000000) translate(-30.000000, -27.669492) "></path>
</svg>