<svg xmlns="http://www.w3.org/2000/svg" version="1.0" width="933.333" height="933.333" viewBox="0 0 700.000000 700.000000"><path d="M21.2 12.3c3 3.8 35.6 44.3 39.6 49.2 1 1.1 8 9.9 15.7 19.5 7.7 9.6 14.2 17.7 14.5 18 .3.3 6.8 8.3 14.5 17.9 24.5 30.4 32.6 40.4 39 48.1l6.1 7.5 112.1-.1h112L196.4 350.8 18 529.2l3.3 4.1c2.7 3.5 10.2 12.8 15 18.7.7.8 4.8 6 9.2 11.5 4.4 5.5 8.8 10.9 9.7 12 .9 1.1 9.7 11.9 19.4 24 9.8 12.1 22.3 27.6 27.9 34.5 5.5 6.9 18.5 23 28.8 35.7 10.6 13.2 19.5 23.3 20.5 23.4h63.7c34.1 0 153.5 0 265.4-.1h203.3l-2.8-3.8c-1.5-2-3.1-3.9-3.4-4.2-.6-.5-28.5-34.8-59-72.6-41.1-50.9-62.6-77.2-65.4-80.2l-3-3.2H301l185-185c101.7-101.7 185-185.5 185-186.1 0-.6-9.1-12.4-20.2-26.2-11.2-13.9-20.9-26.1-21.8-27.1-.8-1-2.7-3.3-4.1-5-1.4-1.7-15.5-19.3-31.4-39.1-15.9-19.8-30.2-37.6-31.9-39.7-1.7-2-4.8-5.6-6.8-8.1l-3.7-4.4-266.5-.1H18l3.2 4.1z"/><path d="M170.8 198.1c-.7.5 54.2 69.7 61.9 77.9 1.1 1.3 6.6-3.8 40.8-38 21.7-21.7 39.2-39.6 39-39.9-.7-.7-140.5-.7-141.7 0z"/></svg>